#!OML:ASF G:\JayActor3\Patient Classification 1\Patient 1\Session 5\male.ASF
:FULLY-SPECIFIED
:DEGREES
760
root -3.09767 16.0376 -5.68013 -139.091 92.5691 -157.814
lowerback 38.912 -2.09556 0.595923
upperback 9.46227 -1.42212 -2.31883
thorax -8.54607 -0.137383 -2.28737
lowerneck -1.22587 0.132538 2.78396
upperneck -22.9788 1.29305 1.00093
head -6.79662 0.682821 -0.262244
rclavicle 3.18055e-015 -1.33186e-014
rhumerus -28.6091 -1.82276 -87.3303
rradius 50.5682
rwrist -4.93062
rhand -20.818 -9.64506
rfingers 7.12502
rthumb 5.55006 -39.5524
lclavicle 3.18055e-015 -1.33186e-014
lhumerus -23.5498 3.39921 80.5496
lradius 38.6591
lwrist 22.7591
lhand -23.1243 15.9342
lfingers 7.12502
lthumb 3.3231 45.888
rfemur -71.3345 -1.433 16.7786
rtibia 53.8879
rfoot 4.97432 -8.61723
rtoes -6.43972
lfemur -51.5919 13.8022 -28.4155
ltibia 69.6645
lfoot -6.77341 -2.8387
ltoes -25.7243
761
root -3.21878 16.0145 -5.69829 -140.264 92.5885 -158.824
lowerback 38.8834 -2.05904 0.574958
upperback 9.46341 -1.3836 -2.29258
thorax -8.53224 -0.12046 -2.26383
lowerneck -1.24787 0.130553 2.79972
upperneck -22.8452 1.28089 1.00286
head -6.74928 0.673674 -0.26245
rclavicle -3.18055e-015 -1.09332e-014
rhumerus -28.6782 -1.80769 -87.3181
rradius 50.5086
rwrist -4.90873
rhand -20.7837 -9.89555
rfingers 7.12502
rthumb 5.58318 -39.802
lclavicle -3.18055e-015 -1.09332e-014
lhumerus -23.6851 3.4904 80.4416
lradius 38.5174
lwrist 22.6763
lhand -23.1008 16.008
lfingers 7.12502
lthumb 3.34579 45.9615
rfemur -71.5632 -1.68617 16.9759
rtibia 56.2697
rfoot 4.09777 -7.36774
rtoes -7.55171
lfemur -52.1073 13.8298 -28.6041
ltibia 69.9862
lfoot -6.79761 -2.5712
ltoes -25.3259
762
root -3.33796 15.9906 -5.71509 -141.615 92.5914 -160.001
lowerback 38.8645 -2.03002 0.572857
upperback 9.46809 -1.34605 -2.2654
thorax -8.51815 -0.103689 -2.24873
lowerneck -1.2622 0.126912 2.8149
upperneck -22.7346 1.26904 1.00851
head -6.71085 0.664681 -0.261611
rclavicle -2.90226e-014 -5.08889e-014
rhumerus -28.7502 -1.80203 -87.3117
rradius 50.467
rwrist -4.90117
rhand -20.7325 -10.2275
rfingers 7.12502
rthumb 5.63264 -40.1327
lclavicle -2.90226e-014 -5.08889e-014
lhumerus -23.8082 3.5975 80.3224
lradius 38.3656
lwrist 22.5956
lhand -23.088 16.0943
lfingers 7.12502
lthumb 3.35814 46.0476
rfemur -71.7617 -1.91985 17.1698
rtibia 58.8115
rfoot 3.31789 -6.20621
rtoes -8.53421
lfemur -52.6021 13.8121 -28.7382
ltibia 70.3131
lfoot -6.81706 -2.33332
ltoes -24.932
763
root -3.45515 15.9658 -5.73088 -143.159 92.5855 -161.363
lowerback 38.849 -2.0072 0.588674
upperback 9.47644 -1.30888 -2.24028
thorax -8.5017 -0.0868452 -2.24501
lowerneck -1.2693 0.121968 2.83003
upperneck -22.6455 1.25743 1.01549
head -6.68073 0.65592 -0.260554
rclavicle -3.81667e-014 -3.18055e-014
rhumerus -28.8194 -1.8071 -87.3108
rradius 50.4259
rwrist -4.89895
rhand -20.6886 -10.5756
rfingers 7.12502
rthumb 5.67497 -40.4796
lclavicle -3.81667e-014 -3.18055e-014
lhumerus -23.9267 3.71897 80.1926
lradius 38.2186
lwrist 22.5242
lhand -23.0939 16.174
lfingers 7.12502
lthumb 3.35247 46.1273
rfemur -71.9263 -2.13552 17.3581
rtibia 61.4707
rfoot 2.60786 -5.18208
rtoes -9.4877
lfemur -53.075 13.7622 -28.8315
ltibia 70.6363
lfoot -6.84485 -2.11883
ltoes -24.6333
764
root -3.57058 15.9406 -5.7457 -144.754 92.5747 -162.776
lowerback 38.8326 -1.98817 0.614517
upperback 9.48744 -1.27239 -2.21711
thorax -8.48234 -0.0701336 -2.24833
lowerneck -1.26614 0.116586 2.84745
upperneck -22.577 1.24593 1.01698
head -6.65905 0.647561 -0.261875
rclavicle -5.56597e-015 -3.97569e-016
rhumerus -28.8801 -1.82019 -87.3089
rradius 50.3681
rwrist -4.90168
rhand -20.645 -10.8747
rfingers 7.12502
rthumb 5.71707 -40.7776
lclavicle -5.56597e-015 -3.97569e-016
lhumerus -24.0332 3.85699 80.0543
lradius 38.0607
lwrist 22.4596
lhand -23.1058 16.2271
lfingers 7.12502
lthumb 3.34088 46.1806
rfemur -72.0498 -2.33322 17.5265
rtibia 64.2069
rfoot 1.96222 -4.3166
rtoes -10.4548
lfemur -53.5264 13.6868 -28.9005
ltibia 70.9435
lfoot -6.88431 -1.91938
ltoes -24.3729
765
root -3.68461 15.9154 -5.75971 -146.343 92.5616 -164.184
lowerback 38.8121 -1.97356 0.65061
upperback 9.49896 -1.23799 -2.19833
thorax -8.46155 -0.0543342 -2.26085
lowerneck -1.25364 0.109492 2.86827
upperneck -22.5226 1.23245 1.01387
head -6.64356 0.638318 -0.265298
rclavicle -1.15295e-014 -1.61016e-014
rhumerus -28.929 -1.84052 -87.3061
rradius 50.2763
rwrist -4.89402
rhand -20.6215 -11.072
rfingers 7.12502
rthumb 5.73978 -40.9743
lclavicle -1.15295e-014 -1.61016e-014
lhumerus -24.132 4.00425 79.9099
lradius 37.8994
lwrist 22.4127
lhand -23.1418 16.2666
lfingers 7.12502
lthumb 3.30612 46.2207
rfemur -72.1286 -2.51473 17.6675
rtibia 66.9837
rfoot 1.38045 -3.59939
rtoes -11.4724
lfemur -53.9575 13.5937 -28.9577
ltibia 71.2249
lfoot -6.93704 -1.72632
ltoes -24.1456
766
root -3.79748 15.8912 -5.77254 -147.662 92.539 -165.326
lowerback 38.7893 -1.96715 0.690701
upperback 9.5103 -1.21258 -2.18462
thorax -8.44082 -0.0425043 -2.2773
lowerneck -1.24311 0.101953 2.8922
upperneck -22.4675 1.2179 1.00781
head -6.62753 0.628585 -0.27013
rclavicle 1.98785e-015 5.76476e-015
rhumerus -28.9622 -1.85986 -87.3062
rradius 50.1535
rwrist -4.87656
rhand -20.6128 -11.1814
rfingers 7.12502
rthumb 5.74817 -41.0835
lclavicle 1.98785e-015 5.76476e-015
lhumerus -24.2181 4.1664 79.756
lradius 37.7248
lwrist 22.3767
lhand -23.1911 16.3122
lfingers 7.12502
lthumb 3.25853 46.2671
rfemur -72.1508 -2.68582 17.7685
rtibia 69.7685
rfoot 0.875694 -2.99815
rtoes -12.6979
lfemur -54.3596 13.4791 -29.0121
ltibia 71.4672
lfoot -6.99906 -1.53192
ltoes -23.9212
767
root -3.90965 15.8684 -5.78446 -148.725 92.5128 -166.221
lowerback 38.7554 -1.96572 0.730716
upperback 9.52128 -1.19415 -2.17511
thorax -8.41727 -0.0339114 -2.29545
lowerneck -1.2376 0.0939367 2.91657
upperneck -22.4089 1.20175 0.998517
head -6.60945 0.618349 -0.275951
rclavicle 1.90833e-014 1.94809e-014
rhumerus -28.9737 -1.88014 -87.3045
rradius 49.9887
rwrist -4.84215
rhand -20.6225 -11.1744
rfingers 7.12502
rthumb 5.73887 -41.0767
lclavicle 1.90833e-014 1.94809e-014
lhumerus -24.2945 4.33433 79.6013
lradius 37.5482
lwrist 22.3488
lhand -23.2438 16.3434
lfingers 7.12502
lthumb 3.20768 46.299
rfemur -72.116 -2.84211 17.8241
rtibia 72.5306
rfoot 0.440108 -2.49471
rtoes -13.9896
lfemur -54.7413 13.3471 -29.0703
ltibia 71.6656
lfoot -7.06519 -1.33392
ltoes -23.6906
768
root -4.02141 15.8469 -5.79537 -149.658 92.484 -167.002
lowerback 38.7098 -1.96574 0.76569
upperback 9.53119 -1.17983 -2.164
thorax -8.39102 -0.0274451 -2.30762
lowerneck -1.24375 0.0869378 2.93594
upperneck -22.3401 1.18518 0.985768
head -6.58606 0.608691 -0.281898
rclavicle -1.70955e-014 -1.53064e-014
rhumerus -28.9641 -1.88947 -87.3029
rradius 49.8075
rwrist -4.79557
rhand -20.619 -11.1678
rfingers 7.12502
rthumb 5.74222 -41.07
lclavicle -1.70955e-014 -1.53064e-014
lhumerus -24.358 4.5225 79.451
lradius 37.365
lwrist 22.3212
lhand -23.3094 16.4011
lfingers 7.12502
lthumb 3.14426 46.3576
rfemur -72.0211 -2.97851 17.838
rtibia 75.2448
rfoot 0.0778222 -2.0547
rtoes -15.2137
lfemur -55.1082 13.201 -29.126
ltibia 71.8218
lfoot -7.13249 -1.13682
ltoes -23.4351
769
root -4.13307 15.8273 -5.80534 -150.558 92.4564 -167.767
lowerback 38.6563 -1.96791 0.798699
upperback 9.53528 -1.17047 -2.15579
thorax -8.36891 -0.0236927 -2.3199
lowerneck -1.25974 0.0824691 2.95486
upperneck -22.2601 1.17096 0.971508
head -6.55736 0.600411 -0.288265
rclavicle -6.36111e-015 -1.11319e-014
rhumerus -28.9371 -1.88967 -87.3077
rradius 49.6083
rwrist -4.73688
rhand -20.6053 -11.1686
rfingers 7.12502
rthumb 5.75548 -41.0705
lclavicle -6.36111e-015 -1.11319e-014
lhumerus -24.4185 4.72103 79.3003
lradius 37.1841
lwrist 22.2898
lhand -23.3752 16.446
lfingers 7.12502
lthumb 3.08075 46.4035
rfemur -71.8622 -3.08485 17.8087
rtibia 77.886
rfoot -0.200898 -1.64912
rtoes -16.2394
lfemur -55.4659 13.0461 -29.1763
ltibia 71.9357
lfoot -7.18992 -0.949743
ltoes -23.217
770
root -4.24467 15.8097 -5.81425 -151.591 92.4318 -168.683
lowerback 38.5913 -1.96565 0.823255
upperback 9.53555 -1.15944 -2.14193
thorax -8.34673 -0.0197424 -2.32241
lowerneck -1.27583 0.0801619 2.96823
upperneck -22.1801 1.15863 0.953316
head -6.52861 0.593792 -0.295055
rclavicle -7.95139e-016 1.33186e-014
rhumerus -28.8951 -1.87733 -87.3082
rradius 49.4017
rwrist -4.67193
rhand -20.5702 -11.1828
rfingers 7.12502
rthumb 5.78935 -41.0837
lclavicle -7.95139e-016 1.33186e-014
lhumerus -24.4765 4.92601 79.1598
lradius 37.0066
lwrist 22.2526
lhand -23.4349 16.4554
lfingers 7.12502
lthumb 3.02308 46.4137
rfemur -71.6352 -3.15366 17.7424
rtibia 80.4351
rfoot -0.388823 -1.23576
rtoes -17.0237
lfemur -55.821 12.8844 -29.2109
ltibia 72.0112
lfoot -7.22748 -0.785025
ltoes -23.0118
771
root -4.3561 15.7945 -5.8221 -152.748 92.4172 -169.742
lowerback 38.5171 -1.95789 0.8399
upperback 9.53015 -1.14621 -2.1294
thorax -8.32757 -0.0153066 -2.32306
lowerneck -1.29567 0.0804969 2.98138
upperneck -22.0975 1.15015 0.936621
head -6.49835 0.589035 -0.301494
rclavicle 1.51076e-014 1.76918e-014
rhumerus -28.8444 -1.86955 -87.3115
rradius 49.1938
rwrist -4.59546
rhand -20.5305 -11.1987
rfingers 7.12502
rthumb 5.82765 -41.0986
lclavicle 1.51076e-014 1.76918e-014
lhumerus -24.5386 5.11956 79.0246
lradius 36.8425
lwrist 22.2123
lhand -23.4941 16.4267
lfingers 7.12502
lthumb 2.96597 46.3858
rfemur -71.3411 -3.18165 17.6384
rtibia 82.8768
rfoot -0.482697 -0.786451
rtoes -17.6204
lfemur -56.1752 12.7222 -29.2322
ltibia 72.0473
lfoot -7.23823 -0.652327
ltoes -22.8959
772
root -4.46761 15.7813 -5.829 -153.917 92.4188 -170.842
lowerback 38.43 -1.94209 0.84668
upperback 9.51515 -1.12958 -2.12238
thorax -8.31454 -0.0100593 -2.32578
lowerneck -1.31262 0.0820584 2.99867
upperneck -22.0175 1.14434 0.922084
head -6.46947 0.585105 -0.30811
rclavicle 4.17448e-014 4.8901e-014
rhumerus -28.7932 -1.87352 -87.3184
rradius 48.9939
rwrist -4.51426
rhand -20.4852 -11.1987
rfingers 7.12502
rthumb 5.87139 -41.0973
lclavicle 4.17448e-014 4.8901e-014
lhumerus -24.6074 5.28419 78.8951
lradius 36.6944
lwrist 22.1754
lhand -23.5441 16.3658
lfingers 7.12502
lthumb 2.91768 46.3256
rfemur -70.9952 -3.17129 17.496
rtibia 85.2018
rfoot -0.461445 -0.276432
rtoes -18.0309
lfemur -56.5435 12.5573 -29.2478
ltibia 72.0463
lfoot -7.21691 -0.551997
ltoes -22.8255
773
root -4.57891 15.7705 -5.83471 -154.966 92.4263 -171.843
lowerback 38.3355 -1.92161 0.843627
upperback 9.49379 -1.1124 -2.11775
thorax -8.30592 -0.00500684 -2.32613
lowerneck -1.32288 0.0829698 3.01868
upperneck -21.9474 1.13905 0.909913
head -6.44501 0.581048 -0.314548
rclavicle 9.54166e-015 2.16675e-014
rhumerus -28.7436 -1.89047 -87.3263
rradius 48.8086
rwrist -4.43023
rhand -20.4464 -11.1865
rfingers 7.12502
rthumb 5.90887 -41.0841
lclavicle 9.54166e-015 2.16675e-014
lhumerus -24.6792 5.41585 78.7769
lradius 36.5652
lwrist 22.1394
lhand -23.5751 16.2832
lfingers 7.12502
lthumb 2.88767 46.2434
rfemur -70.586 -3.13996 17.3242
rtibia 87.4011
rfoot -0.33185 0.286199
rtoes -18.2749
lfemur -56.9137 12.3772 -29.2521
ltibia 72.0046
lfoot -7.16347 -0.483692
ltoes -22.7645
